<?xml version="1.0" encoding="utf-8"?>
<!-- Generator: Adobe Illustrator 27.1.1, SVG Export Plug-In . SVG Version: 6.00 Build 0)  -->
<svg version="1.1" id="Layer_1" xmlns="http://www.w3.org/2000/svg" xmlns:xlink="http://www.w3.org/1999/xlink" x="0px" y="0px"
	 viewBox="0 0 381.71 261.32" style="enable-background:new 0 0 381.71 261.32;" xml:space="preserve">
<style type="text/css">
	.st0{fill:#222222;}
	.st1{fill:url(#SVGID_1_);}
	.st2{fill:url(#SVGID_00000180331642904409907660000014757340619429071488_);}
	.st3{fill:url(#SVGID_00000138565678085290751580000002392867274924805783_);}
	.st4{fill:url(#SVGID_00000075120878229354726250000000304201608719486879_);}
	.st5{fill:url(#SVGID_00000033333010846806829870000016757773024296303236_);}
</style>
<g>
	<g>
		<path class="st0" d="M6.49,210.06h19.19v6.59H13.74v12.86h9.36v6.59h-9.36v20.11H6.49V210.06z"/>
		<path class="st0" d="M36.81,253.84c-1.89-2.02-2.84-4.88-2.84-8.57v-24.27c0-3.69,0.95-6.55,2.84-8.57
			c1.89-2.02,4.62-3.03,8.18-3.03c3.56,0,6.29,1.01,8.18,3.03c1.89,2.02,2.84,4.88,2.84,8.57v24.27c0,3.69-0.95,6.55-2.84,8.57
			c-1.89,2.02-4.62,3.03-8.18,3.03C41.42,256.88,38.7,255.87,36.81,253.84z M48.74,245.73v-25.19c0-3.03-1.25-4.55-3.76-4.55
			s-3.76,1.52-3.76,4.55v25.19c0,3.03,1.25,4.55,3.76,4.55S48.74,248.77,48.74,245.73z"/>
		<path class="st0" d="M68.02,253.88c-1.85-2-2.77-4.87-2.77-8.61v-35.21h7.25v35.74c0,1.58,0.32,2.73,0.96,3.43
			c0.64,0.7,1.55,1.05,2.74,1.05c1.19,0,2.1-0.35,2.74-1.05c0.64-0.7,0.96-1.85,0.96-3.43v-35.74h6.99v35.21
			c0,3.74-0.92,6.61-2.77,8.61c-1.85,2-4.53,3-8.04,3C72.55,256.88,69.87,255.88,68.02,253.88z"/>
		<path class="st0" d="M96.51,210.06h9.1l7.06,27.63h0.13v-27.63h6.46v46.16h-7.45l-8.7-33.7h-0.13v33.7h-6.46V210.06z"/>
		<path class="st0" d="M129.03,210.06h11.08c3.6,0,6.31,0.97,8.11,2.9c1.8,1.94,2.7,4.77,2.7,8.51v23.34c0,3.74-0.9,6.57-2.7,8.51
			c-1.8,1.93-4.51,2.9-8.11,2.9h-11.08V210.06z M139.98,249.62c1.19,0,2.1-0.35,2.74-1.06c0.64-0.7,0.96-1.85,0.96-3.43v-24
			c0-1.58-0.32-2.72-0.96-3.43s-1.55-1.06-2.74-1.06h-3.69v32.97H139.98z"/>
		<path class="st0" d="M160.35,210.06h19.78v6.59H167.6v12.2h9.96v6.59h-9.96v14.18h12.53v6.59h-19.78V210.06z"/>
		<path class="st0" d="M189.1,210.06h10.75c3.74,0,6.46,0.87,8.18,2.6c1.72,1.74,2.57,4.41,2.57,8.01v2.83
			c0,4.79-1.58,7.83-4.75,9.1v0.13c1.76,0.53,3,1.6,3.73,3.23c0.73,1.63,1.09,3.8,1.09,6.53v8.11c0,1.32,0.04,2.39,0.13,3.2
			c0.09,0.81,0.31,1.62,0.66,2.41h-7.39c-0.26-0.75-0.44-1.45-0.53-2.11c-0.09-0.66-0.13-1.85-0.13-3.56v-8.44
			c0-2.11-0.34-3.58-1.02-4.42c-0.68-0.83-1.86-1.25-3.53-1.25h-2.51v19.78h-7.25V210.06z M198.99,229.84
			c1.45,0,2.54-0.37,3.27-1.12c0.73-0.75,1.09-2,1.09-3.76v-3.56c0-1.67-0.3-2.88-0.89-3.63c-0.59-0.75-1.53-1.12-2.8-1.12h-3.3
			v13.19H198.99z"/>
		<path class="st0" d="M237.57,253.88c-1.8-2-2.7-4.87-2.7-8.61v-2.64h6.86v3.17c0,2.99,1.25,4.48,3.76,4.48
			c1.23,0,2.17-0.36,2.8-1.09c0.64-0.73,0.96-1.9,0.96-3.53c0-1.93-0.44-3.64-1.32-5.11c-0.88-1.47-2.51-3.24-4.88-5.31
			c-2.99-2.64-5.08-5.02-6.26-7.15c-1.19-2.13-1.78-4.54-1.78-7.22c0-3.65,0.92-6.47,2.77-8.47c1.85-2,4.53-3,8.04-3
			c3.47,0,6.1,1,7.88,3c1.78,2,2.67,4.87,2.67,8.61v1.91h-6.86v-2.37c0-1.58-0.31-2.74-0.92-3.46c-0.62-0.73-1.52-1.09-2.71-1.09
			c-2.42,0-3.63,1.47-3.63,4.42c0,1.67,0.45,3.23,1.35,4.68c0.9,1.45,2.54,3.21,4.91,5.28c3.03,2.64,5.12,5.03,6.27,7.19
			c1.14,2.15,1.71,4.68,1.71,7.58c0,3.78-0.93,6.68-2.8,8.7c-1.87,2.02-4.58,3.03-8.14,3.03
			C242.03,256.88,239.37,255.88,237.57,253.88z"/>
		<path class="st0" d="M265.47,210.06h19.78v6.59h-12.53v12.2h9.96v6.59h-9.96v14.18h12.53v6.59h-19.78V210.06z"/>
		<path class="st0" d="M294.23,210.06h19.78v6.59h-12.53v12.2h9.96v6.59h-9.96v14.18h12.53v6.59h-19.78V210.06z"/>
		<path class="st0" d="M322.98,210.06h11.08c3.6,0,6.31,0.97,8.11,2.9c1.8,1.94,2.7,4.77,2.7,8.51v23.34c0,3.74-0.9,6.57-2.7,8.51
			c-1.8,1.93-4.51,2.9-8.11,2.9h-11.08V210.06z M333.93,249.62c1.19,0,2.1-0.35,2.74-1.06c0.64-0.7,0.96-1.85,0.96-3.43v-24
			c0-1.58-0.32-2.72-0.96-3.43s-1.55-1.06-2.74-1.06h-3.69v32.97H333.93z"/>
		<path class="st0" d="M356.3,253.88c-1.8-2-2.7-4.87-2.7-8.61v-2.64h6.86v3.17c0,2.99,1.25,4.48,3.76,4.48
			c1.23,0,2.17-0.36,2.8-1.09s0.96-1.9,0.96-3.53c0-1.93-0.44-3.64-1.32-5.11c-0.88-1.47-2.51-3.24-4.88-5.31
			c-2.99-2.64-5.08-5.02-6.26-7.15c-1.19-2.13-1.78-4.54-1.78-7.22c0-3.65,0.92-6.47,2.77-8.47c1.85-2,4.53-3,8.04-3
			c3.47,0,6.1,1,7.88,3s2.67,4.87,2.67,8.61v1.91h-6.86v-2.37c0-1.58-0.31-2.74-0.92-3.46c-0.62-0.73-1.52-1.09-2.71-1.09
			c-2.42,0-3.63,1.47-3.63,4.42c0,1.67,0.45,3.23,1.35,4.68c0.9,1.45,2.54,3.21,4.91,5.28c3.03,2.64,5.12,5.03,6.27,7.19
			c1.14,2.15,1.71,4.68,1.71,7.58c0,3.78-0.93,6.68-2.8,8.7c-1.87,2.02-4.58,3.03-8.14,3.03
			C360.76,256.88,358.1,255.88,356.3,253.88z"/>
	</g>
	<g>
		<g>
			<radialGradient id="SVGID_1_" cx="71.0359" cy="53.9375" r="185.2282" gradientUnits="userSpaceOnUse">
				<stop  offset="0.0275" style="stop-color:#FFFFFF"/>
				<stop  offset="0.4066" style="stop-color:#B2D236"/>
				<stop  offset="1" style="stop-color:#035C2F"/>
			</radialGradient>
			<path class="st1" d="M194.38,146.2c-1.51-10.41-9.34-24.09-9.77-29.52c-1.22-15.69,14.98-22.49,14.98-22.49
				c-1.93,0.99-13.12,10.68-12.06,22.51c12.23,6.78,19.05-2.7,22.68-13.95c2.88-8.96,17.25-10.39,17.25-10.39s-11.72-7.8-23.33-7.6
				c-4.81,0.09-13.84,3.37-17.66,7.44c-10.41,11.11-4.6,24.27-4.58,24.27c1.21,6.14,8.23,15.39,10.77,29.04
				c2.61,14.05-2.09,22.37-1.67,22.2c1.35-1.05,1.61,0.76,2.89-0.38C193.11,167.85,196.43,160.35,194.38,146.2z"/>
			
				<radialGradient id="SVGID_00000029742242598092321480000005007093681983344551_" cx="71.0359" cy="53.9375" r="185.2282" gradientUnits="userSpaceOnUse">
				<stop  offset="0.0275" style="stop-color:#FFFFFF"/>
				<stop  offset="0.4066" style="stop-color:#B2D236"/>
				<stop  offset="1" style="stop-color:#035C2F"/>
			</radialGradient>
			<path style="fill:url(#SVGID_00000029742242598092321480000005007093681983344551_);" d="M176.74,169.86
				c0.2-0.11,0.41-0.22,0.61-0.33c4.95-2.62,13.34-19.41,5.07-36.33c-7.55-15.45-30.19-50.7-26.71-74.11
				c5.37-36.08,56.46-25.62,56.46-25.62s-10.47,4.22-18.13,14.94c-6.07,8.49-9.98,31.42-27.22,23.34c0,0-0.64-25.58,28.34-33.63
				c0,0-62.86,10.86-13.59,83.5c12.5,18.43,12.73,36.91,7.36,46.34C184.91,168.87,180.84,169.53,176.74,169.86z"/>
			
				<radialGradient id="SVGID_00000040558874198071527270000009697604462556355978_" cx="71.0359" cy="53.9375" r="185.2282" gradientUnits="userSpaceOnUse">
				<stop  offset="0.0275" style="stop-color:#FFFFFF"/>
				<stop  offset="0.4066" style="stop-color:#B2D236"/>
				<stop  offset="1" style="stop-color:#035C2F"/>
			</radialGradient>
			<path style="fill:url(#SVGID_00000040558874198071527270000009697604462556355978_);" d="M199.38,51.15c0,0,8-13.68,20.4-14.15
				c17.34-0.66,23.74,13.4,23.74,13.4s-10.05-4.3-24,6.2c-7.86,5.92-15.22,1.66-18.8-3.72c6.64-7.51,12.29-9.37,21.73-10.83
				C222.44,42.04,207.99,39.94,199.38,51.15z"/>
		</g>
		<g>
			
				<radialGradient id="SVGID_00000088130766524866873090000006619435097102553261_" cx="191.1585" cy="8.8614" r="140.3877" gradientUnits="userSpaceOnUse">
				<stop  offset="0" style="stop-color:#FCB715"/>
				<stop  offset="1" style="stop-color:#D95427"/>
			</radialGradient>
			<path style="fill:url(#SVGID_00000088130766524866873090000006619435097102553261_);" d="M270.43,82.66
				c-2.51,0-4.72-1.82-5.13-4.38c-5.85-36.76-37.16-63.43-74.44-63.43c-37.28,0-68.59,26.68-74.44,63.43
				c-0.45,2.84-3.12,4.77-5.95,4.32c-2.84-0.45-4.77-3.12-4.32-5.95c3.17-19.93,13.39-38.2,28.77-51.44
				c15.54-13.38,35.41-20.75,55.95-20.75s40.4,7.37,55.95,20.75c15.38,13.24,25.59,31.51,28.77,51.44c0.45,2.84-1.48,5.5-4.32,5.95
				C270.97,82.63,270.7,82.66,270.43,82.66z"/>
		</g>
		
			<radialGradient id="SVGID_00000036951935356728419440000010668779529645349035_" cx="190.8542" cy="175.5132" r="119.7824" gradientUnits="userSpaceOnUse">
			<stop  offset="0" style="stop-color:#06548C"/>
			<stop  offset="0.3972" style="stop-color:#0071A6"/>
			<stop  offset="1" style="stop-color:#00A8D6"/>
		</radialGradient>
		<path style="fill:url(#SVGID_00000036951935356728419440000010668779529645349035_);" d="M272.1,90.57
			c-1.81-0.23-3.44,0.5-4.53,1.72c-0.82,0.92-1.33,2.12-1.33,3.44c0,0.01,0,0.02,0,0.03c0,2.09-0.33,4.17-0.92,6.18
			c-3.87,13.3-13.99,37.03-37.89,42.73c-0.06,0.01-0.1-0.07-0.05-0.1c2.6-1.67,21.87-14.49,16.94-24.25c0,0-1.2-3.32-3.32-2.13
			c-2.13,1.2-16.05,13.59-25.88,17.18c-8.71,3.18-22.12,9.05-24.07,33.52c-0.01,0.07-0.1,0.07-0.1,0
			c-1.94-24.46-15.36-30.34-24.07-33.52c-9.83-3.59-23.76-15.98-25.88-17.18c-2.13-1.2-3.32,2.13-3.32,2.13
			c-4.93,9.77,14.34,22.58,16.94,24.25c0.05,0.03,0.01,0.12-0.05,0.1c-25.51-6.09-35.33-32.73-38.59-45.28
			c-0.31-1.19-0.49-2.41-0.49-3.64c0-0.01,0-0.01,0-0.02c0-1.1-0.35-2.12-0.93-2.96c-0.94-1.35-2.5-2.24-4.27-2.24
			c-2.6,0-4.74,1.92-5.12,4.41c-0.04,0.26-0.08,0.52-0.08,0.78c0,6.84,0.83,13.5,2.35,19.88c4.01,16.84,12.99,31.77,25.31,43.14
			c15.3,14.12,35.71,22.76,58.12,22.76c21.29,0,40.77-7.81,55.78-20.69c18.27-15.68,29.9-38.88,30-64.76
			C276.65,93.36,274.77,90.9,272.1,90.57z"/>
	</g>
</g>
</svg>
